# xmcd CD database file
#
# Track frame offsets:
#	187
#	22950
#	48225
#	59475
#	78450
#	102375
#	126450
#
# Disc length: 2137 seconds
#
# Revision: 0
# Processed by: cddbd v1.5.2PL0 Copyright (c) Steve Scherf et al.
# Submitted via: CDex 1.70beta2
#
DISCID=5a085707
DTITLE=Ray Bryant - The Ray Bryant Touch
DYEAR=1967
DGENRE=Jazz
TTITLE0=Little Suzie
TTITLE1=This Is All I Ask
TTITLE2=City Tribal Dunce
TTITLE3=Prayer Song
TTITLE4=You Keep Me Hanging On
TTITLE5=Takin' My Ease
TTITLE6=And I Love Her
EXTD=YEAR: 1967
EXTT0=
EXTT1=
EXTT2=
EXTT3=
EXTT4=
EXTT5=
EXTT6=
PLAYORDER=
